<mxfile host="Electron" agent="Mozilla/5.0 (Windows NT 10.0; Win64; x64) AppleWebKit/537.36 (KHTML, like Gecko) draw.io/26.0.9 Chrome/128.0.6613.186 Electron/32.2.5 Safari/537.36" version="26.0.9">
  <diagram name="Seite-1" id="a3kO5sCpIvc-SGIHtwUc">
    <mxGraphModel dx="1050" dy="717" grid="1" gridSize="10" guides="1" tooltips="1" connect="1" arrows="1" fold="1" page="1" pageScale="1" pageWidth="827" pageHeight="1169" math="0" shadow="0">
      <root>
        <mxCell id="0" />
        <mxCell id="1" parent="0" />
        <mxCell id="329LCNun6SrsskYd1zxK-1" value="FixtureData&lt;span style=&quot;background-color: transparent; color: light-dark(rgb(0, 0, 0), rgb(255, 255, 255));&quot;&gt;Structure&lt;/span&gt;" style="shape=umlFrame;whiteSpace=wrap;html=1;pointerEvents=0;recursiveResize=0;container=1;collapsible=0;width=160;" parent="1" vertex="1">
          <mxGeometry x="140" y="130" width="610" height="530" as="geometry" />
        </mxCell>
        <mxCell id="wF4ViWnevGBw740tV7Cz-6" style="edgeStyle=orthogonalEdgeStyle;rounded=0;orthogonalLoop=1;jettySize=auto;html=1;exitX=0.5;exitY=0;exitDx=0;exitDy=0;entryX=0.5;entryY=1;entryDx=0;entryDy=0;endArrow=block;endFill=0;" edge="1" parent="329LCNun6SrsskYd1zxK-1" source="wF4ViWnevGBw740tV7Cz-1" target="wF4ViWnevGBw740tV7Cz-3">
          <mxGeometry relative="1" as="geometry" />
        </mxCell>
        <mxCell id="wF4ViWnevGBw740tV7Cz-1" value="«interface»&lt;br&gt;&lt;b&gt;RGB&lt;/b&gt;" style="html=1;whiteSpace=wrap;" vertex="1" parent="329LCNun6SrsskYd1zxK-1">
          <mxGeometry x="460" y="120" width="110" height="50" as="geometry" />
        </mxCell>
        <mxCell id="wF4ViWnevGBw740tV7Cz-3" value="«interface»&lt;br&gt;&lt;div&gt;&lt;b&gt;ColorType&lt;/b&gt;&lt;/div&gt;" style="html=1;whiteSpace=wrap;" vertex="1" parent="329LCNun6SrsskYd1zxK-1">
          <mxGeometry x="360" y="10" width="110" height="50" as="geometry" />
        </mxCell>
        <mxCell id="wF4ViWnevGBw740tV7Cz-5" style="edgeStyle=orthogonalEdgeStyle;rounded=0;orthogonalLoop=1;jettySize=auto;html=1;exitX=0.5;exitY=0;exitDx=0;exitDy=0;entryX=0.5;entryY=1;entryDx=0;entryDy=0;endArrow=block;endFill=0;" edge="1" parent="329LCNun6SrsskYd1zxK-1" source="wF4ViWnevGBw740tV7Cz-4" target="wF4ViWnevGBw740tV7Cz-3">
          <mxGeometry relative="1" as="geometry" />
        </mxCell>
        <mxCell id="wF4ViWnevGBw740tV7Cz-4" value="«interface»&lt;br&gt;&lt;b&gt;Single&lt;/b&gt;" style="html=1;whiteSpace=wrap;" vertex="1" parent="329LCNun6SrsskYd1zxK-1">
          <mxGeometry x="310" y="120" width="110" height="50" as="geometry" />
        </mxCell>
        <mxCell id="wF4ViWnevGBw740tV7Cz-7" value="«interface»&lt;br&gt;&lt;b&gt;PositionType&lt;/b&gt;" style="html=1;whiteSpace=wrap;" vertex="1" parent="329LCNun6SrsskYd1zxK-1">
          <mxGeometry x="50" y="40" width="110" height="50" as="geometry" />
        </mxCell>
        <mxCell id="wF4ViWnevGBw740tV7Cz-8" value="«interface»&lt;br&gt;&lt;b&gt;Stationary&lt;/b&gt;" style="html=1;whiteSpace=wrap;" vertex="1" parent="329LCNun6SrsskYd1zxK-1">
          <mxGeometry x="10" y="130" width="110" height="50" as="geometry" />
        </mxCell>
        <mxCell id="wF4ViWnevGBw740tV7Cz-9" value="«interface»&lt;br&gt;&lt;b&gt;2D&lt;/b&gt;" style="html=1;whiteSpace=wrap;" vertex="1" parent="329LCNun6SrsskYd1zxK-1">
          <mxGeometry x="140" y="130" width="110" height="50" as="geometry" />
        </mxCell>
        <mxCell id="wF4ViWnevGBw740tV7Cz-10" value="«interface»&lt;br&gt;&lt;b&gt;3D&lt;/b&gt;" style="html=1;whiteSpace=wrap;" vertex="1" parent="329LCNun6SrsskYd1zxK-1">
          <mxGeometry x="140" y="190" width="110" height="50" as="geometry" />
        </mxCell>
      </root>
    </mxGraphModel>
  </diagram>
</mxfile>
